<?xml version="1.0" encoding="UTF-8" standalone="no"?>
<!DOCTYPE svg PUBLIC "-//W3C//DTD SVG 1.1//EN" "http://www.w3.org/Graphics/SVG/1.1/DTD/svg11.dtd">
<svg version="1.1" xmlns="http://www.w3.org/2000/svg" xmlns:xlink="http://www.w3.org/1999/xlink" preserveAspectRatio="xMidYMid meet" viewBox="0 0 640 640" width="640" height="640"><defs><path d="" id="f5oQGmwMs"></path><path d="M214.46 556.9L221.95 557.36L229.49 557.98L237.08 558.76L244.72 559.68L252.4 560.76L260.13 561.98L267.91 563.36L275.73 564.89L283.6 566.57L291.51 568.41L299.47 570.39L307.48 572.53L315.54 574.82L327.29 578.06L338.33 580.71L348.71 582.81L358.46 584.39L367.61 585.49L376.21 586.15L384.28 586.4L391.88 586.28L399.02 585.83L405.76 585.07L412.13 584.05L418.16 582.8L423.89 581.36L429.37 579.77L434.61 578.05L439.68 576.25L444.59 574.4L449.39 572.54L454.11 570.71L458.8 568.94L463.48 567.26L468.2 565.71L472.99 564.33L477.89 563.16L482.94 562.23L488.17 561.57L493.62 561.22L499.33 561.23L505.33 561.62L511.67 562.42L518.37 563.69L525.48 565.45L533.04 567.73L541.07 570.58L549.62 574.03L558.72 578.12L568.42 582.88L578.74 588.35L589.73 594.56L601.42 601.56L609.03 606.42L615.81 611.15L621.76 615.75L626.86 620.21L631.13 624.54L634.57 628.73L637.16 632.79L638.92 636.72L639.72 640L27.17 640L27.19 639.68L26.76 640L0 640L1.46 636.94L2.93 634L4.41 631.18L5.9 628.48L7.39 625.9L8.89 623.43L10.4 621.08L11.92 618.86L13.45 616.75L14.98 614.75L16.53 612.88L18.08 611.12L19.63 609.49L21.2 607.97L22.78 606.57L24.36 605.29L25.95 604.12L27.55 603.08L29.16 602.15L29.63 601.91L29.65 601.56L35.89 597.93L42.18 594.46L48.51 591.14L54.89 587.97L61.32 584.95L67.79 582.08L74.31 579.37L80.87 576.8L87.48 574.39L94.14 572.13L100.85 570.02L107.6 568.06L114.4 566.26L121.24 564.6L128.13 563.1L135.07 561.75L142.05 560.55L149.09 559.5L156.16 558.61L163.29 557.86L170.46 557.27L177.67 556.83L184.94 556.54L192.25 556.4L199.6 556.41L207.01 556.58L207.01 556.58L214.46 556.9Z" id="a16HVwx3tj"></path></defs><g><g><g><g><use xlink:href="#f5oQGmwMs" opacity="1" fill-opacity="0" stroke="#000000" stroke-width="1" stroke-opacity="1"></use></g></g><g><use xlink:href="#a16HVwx3tj" opacity="1" fill="#d51717" fill-opacity="1"></use></g></g></g></svg>