<svg id="Flat" height="512" viewBox="0 0 512 512" width="512" xmlns="http://www.w3.org/2000/svg"><path d="m264 192h32v72h-32z" fill="#deb89a"/><path d="m376 124.892v-36.892a64 64 0 0 0 -64-64h-8a32 32 0 0 0 -32 32v48a96 96 0 0 0 96 96h8c48 0 48-40 48-40l-21.261-3.543a32 32 0 0 1 -26.739-31.565z" fill="#794832"/><path d="m440 376h-328l61.2-97.92a64.031 64.031 0 0 1 50.89-29.99c1.12-.06 2.25-.09 3.38-.09h36.53l16 16 16-16h34.57c1.75 0 3.48.07 5.2.23a63.933 63.933 0 0 1 50.58 32.39z" fill="#e74444"/><path d="m440 376h-328l61.2-97.92a64.022 64.022 0 0 1 50.41-29.96l.48-.03c1.12-.06 2.25-.09 3.38-.09h36.53l16 16 16-16h34.57c1.75 0 3.48.07 5.2.23l.67.06a63.945 63.945 0 0 1 49.91 32.33z" fill="#e74444"/><g fill="#fc8d36"><path d="m352 328h-72-72l-24 56v104h96 96v-104z"/><path d="m354.3 335.66a7.989 7.989 0 0 1 -9.96-5.36l-24-80a8.011 8.011 0 0 1 -.34-2.3h10.57c1.75 0 3.48.07 5.2.23l.67.06 23.22 77.41a8 8 0 0 1 -5.36 9.96z"/><path d="m240 248a8.011 8.011 0 0 1 -.34 2.3l-24 80a8 8 0 0 1 -15.32-4.6l23.27-77.58.48-.03c1.12-.06 2.25-.09 3.38-.09z"/></g><path d="m377.137 272.235-96.166 96.167-16.971 39.598 39.598-16.971 96.167-96.166z" fill="#c2c5c6"/><path d="m104 312h112v144h-112z" fill="#6a7073"/><path d="m72 328h32a0 0 0 0 1 0 0v32a16 16 0 0 1 -16 16 16 16 0 0 1 -16-16v-32a0 0 0 0 1 0 0z" fill="#deb89a" transform="matrix(-1 0 0 -1 176 704)"/><path d="m136 312h48a0 0 0 0 1 0 0v16a16 16 0 0 1 -16 16h-16a16 16 0 0 1 -16-16v-16a0 0 0 0 1 0 0z" fill="#c2c5c6"/><path d="m369.373 347.882 70.627 28.118-6.038 42.263a16 16 0 0 1 -15.839 13.737h-42.123l-29.255-61.49z" fill="#ce3536"/><path d="m324.368 263.632h32v136h-32z" fill="#6a7073" transform="matrix(.707 .707 -.707 .707 334.191 -143.543)"/><path d="m394.108 261.892a16 16 0 0 1 16 16v16a0 0 0 0 1 0 0h-32a0 0 0 0 1 0 0v-16a16 16 0 0 1 16-16z" fill="#c2c5c6" transform="matrix(.707 .707 -.707 .707 311.931 -197.283)"/><rect fill="#f5cbaa" height="48" rx="16" transform="matrix(.707 .707 -.707 .707 336 -139.176)" width="64" x="304" y="312"/><path d="m224 104h112a0 0 0 0 1 0 0v64a48 48 0 0 1 -48 48h-16a48 48 0 0 1 -48-48v-64a0 0 0 0 1 0 0z" fill="#f5cbaa"/><path d="m280 264-16 24-39.91-39.91c1.12-.06 2.25-.09 3.38-.09h36.53z" fill="#ce3536"/><path d="m335.77 248.23-39.77 39.77-16-24 16-16h34.57c1.75 0 3.48.07 5.2.23z" fill="#ce3536"/><path d="m344 112v48l-14.89-1.86h-.01c-38.07-9.73-57.1-54.14-57.1-54.14s-16 40-56 40v-32a48 48 0 0 1 48-48h32a48 48 0 0 1 48 48z" fill="#93573d"/><path d="m96 360h28a12 12 0 0 1 12 12v36a0 0 0 0 1 0 0h-40a24 24 0 0 1 -24-24 24 24 0 0 1 24-24z" fill="#f5cbaa" transform="matrix(-1 0 0 -1 208 768)"/></svg>