<?xml version="1.0" encoding="utf-8"?><!DOCTYPE svg PUBLIC "-//W3C//DTD SVG 1.1//EN" "http://www.w3.org/Graphics/SVG/1.1/DTD/svg11.dtd"><svg viewBox="0 0 640 640" xmlns="http://www.w3.org/2000/svg" xmlns:xlink="http://www.w3.org/1999/xlink"><style>:root>svg{display:none}:root>svg:target{display:block}</style><svg viewBox="0 0 512 512" id="clock" xmlns="http://www.w3.org/2000/svg"><path d="M256 512c-68.38 0-132.667-26.629-181.02-74.98C26.629 388.667 0 324.38 0 256S26.629 123.333 74.98 74.98C123.333 26.629 187.62 0 256 0s132.667 26.629 181.02 74.98C485.371 123.333 512 187.62 512 256s-26.629 132.667-74.98 181.02C388.667 485.371 324.38 512 256 512zm0-482c-60.367 0-117.12 23.508-159.806 66.194S30 195.633 30 256s23.508 117.12 66.194 159.806S195.633 482 256 482s117.12-23.508 159.806-66.194S482 316.367 482 256s-23.508-117.12-66.194-159.806S316.367 30 256 30z"/><path d="M241 60.036h30v40.032h-30zM355.603 135.159l28.302-28.303 21.21 21.21-28.302 28.303zM411.932 241h40.032v30h-40.032zM355.576 376.868l21.21-21.21 28.303 28.302-21.21 21.21zM241 411.932h30v40.032h-30zM106.775 383.934l28.302-28.303 21.21 21.21-28.302 28.303zM60.036 241h40.032v30H60.036zM106.801 128.04l21.21-21.21 28.303 28.302-21.21 21.21zM361.892 271H241V150.108h30V241h90.892z"/></svg><svg viewBox="0 0 329.269 329" id="close" xmlns="http://www.w3.org/2000/svg"><g fill="#f44336"><path d="M21.34 329.398c-5.461 0-10.926-2.09-15.082-6.25-8.344-8.34-8.344-21.824 0-30.164L292.848 6.391c8.34-8.34 21.824-8.34 30.164 0 8.343 8.34 8.343 21.824 0 30.164L36.422 323.148a21.231 21.231 0 01-15.082 6.25zm0 0"/><path d="M307.93 329.398c-5.461 0-10.922-2.09-15.082-6.25L6.258 36.555c-8.344-8.34-8.344-21.825 0-30.164 8.34-8.34 21.82-8.34 30.164 0l286.59 286.593c8.343 8.34 8.343 21.825 0 30.164-4.16 4.18-9.621 6.25-15.082 6.25zm0 0"/></g></svg><svg viewBox="0 0 32 32" id="facebook" xmlns="http://www.w3.org/2000/svg"><path d="M26 32H6a6 6 0 01-6-6V6a6 6 0 016-6h20a6 6 0 016 6v20a6 6 0 01-6 6z" fill="#ffe6e2"/><path d="M18.727 10.657h1.46V8.113A18.714 18.714 0 0018.06 8c-2.106 0-3.548 1.325-3.548 3.759V14h-2.324v2.844h2.324V24l2.849.001v-7.156h2.23l.354-2.844H17.36v-1.959c.001-.822.222-1.385 1.367-1.385z" fill="#fc573b"/></svg><svg viewBox="0 0 640 640" id="foot" xmlns="http://www.w3.org/2000/svg"><defs><path d="M214.46 556.9l7.49.46 7.54.62 7.59.78 7.64.92 7.68 1.08 7.73 1.22 7.78 1.38 7.82 1.53 7.87 1.68 7.91 1.84 7.96 1.98 8.01 2.14 8.06 2.29 11.75 3.24 11.04 2.65 10.38 2.1 9.75 1.58 9.15 1.1 8.6.66 8.07.25 7.6-.12 7.14-.45 6.74-.76 6.37-1.02 6.03-1.25 5.73-1.44 5.48-1.59 5.24-1.72 5.07-1.8 4.91-1.85 4.8-1.86 4.72-1.83 4.69-1.77 4.68-1.68 4.72-1.55 4.79-1.38 4.9-1.17 5.05-.93 5.23-.66 5.45-.35 5.71.01 6 .39 6.34.8 6.7 1.27 7.11 1.76 7.56 2.28 8.03 2.85 8.55 3.45 9.1 4.09 9.7 4.76 10.32 5.47 10.99 6.21 11.69 7 7.61 4.86 6.78 4.73 5.95 4.6 5.1 4.46 4.27 4.33 3.44 4.19 2.59 4.06 1.76 3.93.8 3.28H27.17l.02-.32-.43.32H0l1.46-3.06L2.93 634l1.48-2.82 1.49-2.7 1.49-2.58 1.5-2.47 1.51-2.35 1.52-2.22 1.53-2.11 1.53-2 1.55-1.87 1.55-1.76 1.55-1.63 1.57-1.52 1.58-1.4 1.58-1.28 1.59-1.17 1.6-1.04 1.61-.93.47-.24.02-.35 6.24-3.63 6.29-3.47 6.33-3.32 6.38-3.17 6.43-3.02 6.47-2.87 6.52-2.71 6.56-2.57 6.61-2.41 6.66-2.26 6.71-2.11 6.75-1.96 6.8-1.8 6.84-1.66 6.89-1.5 6.94-1.35 6.98-1.2 7.04-1.05 7.07-.89 7.13-.75 7.17-.59 7.21-.44 7.27-.29 7.31-.14 7.35.01 7.41.17 7.45.32z" id="db"/></defs><use xmlns:xlink="http://www.w3.org/1999/xlink" xlink:href="#a" fill-opacity="0" stroke="#000"/><use xlink:href="#db" fill="#d51717"/></svg><svg viewBox="0 0 32 32" id="instagram" xmlns="http://www.w3.org/2000/svg"><path d="M26 32H6a6 6 0 01-6-6V6a6 6 0 016-6h20a6 6 0 016 6v20a6 6 0 01-6 6z" fill="#ffe6e2"/><path d="M16.003 11.892a4.105 4.105 0 10-.001 8.209 4.105 4.105 0 00.001-8.209zm0 6.77a2.665 2.665 0 110-5.33 2.665 2.665 0 010 5.33z" fill="#fd907e"/><path d="M19.299 8.05c-1.472-.069-5.118-.066-6.592 0-1.295.061-2.437.374-3.357 1.294-1.539 1.539-1.342 3.612-1.342 6.653 0 3.112-.173 5.138 1.342 6.653 1.544 1.544 3.648 1.342 6.653 1.342 3.683 0 7.713.353 7.947-4.699.069-1.473.066-5.118 0-6.591-.132-2.809-1.64-4.512-4.651-4.652zm2.329 13.582c-1.009 1.009-2.408.919-5.646.919-3.333 0-4.67.049-5.646-.929-1.124-1.118-.92-2.914-.92-5.635 0-6.65.381-6.565 6.556-6.565l.03.02c6.622 0 6.554.429 6.554 6.555.001 3.294.064 4.639-.928 5.635z" fill="#fc573b"/><circle cx="20.271" cy="11.73" fill="#fd907e" r=".959"/></svg><svg viewBox="0 0 512 512" fill="#fff" id="next" xmlns="http://www.w3.org/2000/svg"><path d="M256 0C114.618 0 0 114.618 0 256s114.618 256 256 256 256-114.618 256-256S397.382 0 256 0zm0 469.333c-117.818 0-213.333-95.515-213.333-213.333S138.182 42.667 256 42.667 469.333 138.182 469.333 256 373.818 469.333 256 469.333z"/><path d="M228.418 134.248c-8.331-8.331-21.839-8.331-30.17 0-8.331 8.331-8.331 21.839 0 30.17L289.83 256l-91.582 91.582c-8.331 8.331-8.331 21.839 0 30.17 8.331 8.331 21.839 8.331 30.17 0l106.667-106.667c8.331-8.331 8.331-21.839 0-30.17L228.418 134.248z"/></svg><svg viewBox="0 0 401.998 401.998" id="phone" xmlns="http://www.w3.org/2000/svg"><path d="M401.129 311.475c-1.137-3.426-8.371-8.473-21.697-15.129-3.61-2.098-8.754-4.949-15.41-8.566a1437.412 1437.412 0 01-18.13-9.996 605.612 605.612 0 01-15.276-8.846c-.76-.571-3.139-2.234-7.136-5-4.001-2.758-7.375-4.805-10.14-6.14-2.759-1.327-5.473-1.995-8.138-1.995-3.806 0-8.56 2.714-14.268 8.135a139.01 139.01 0 00-15.7 17.706c-4.757 6.379-9.802 12.275-15.126 17.7-5.332 5.427-9.713 8.138-13.135 8.138-1.718 0-3.86-.479-6.427-1.424-2.566-.951-4.518-1.766-5.858-2.423-1.328-.671-3.607-1.999-6.845-4.004-3.244-1.999-5.048-3.094-5.428-3.285-26.075-14.469-48.438-31.029-67.093-49.676-18.649-18.658-35.211-41.019-49.676-67.097-.19-.381-1.287-2.19-3.284-5.424-2-3.237-3.333-5.518-3.999-6.854-.666-1.331-1.475-3.283-2.425-5.852s-1.427-4.709-1.427-6.424c0-3.424 2.713-7.804 8.138-13.134 5.424-5.327 11.326-10.373 17.7-15.128a138.95 138.95 0 0017.701-15.699c5.424-5.711 8.136-10.467 8.136-14.273 0-2.663-.666-5.378-1.997-8.137-1.332-2.765-3.378-6.139-6.139-10.138-2.762-3.997-4.427-6.374-4.999-7.139a627.13 627.13 0 01-8.848-15.271 1441.4 1441.4 0 01-9.995-18.131c-3.615-6.658-6.468-11.799-8.564-15.415C98.986 9.233 93.943 1.997 90.516.859 89.183.288 87.183 0 84.521 0c-5.142 0-11.85.95-20.129 2.856-8.282 1.903-14.799 3.899-19.558 5.996-9.517 3.995-19.604 15.605-30.264 34.826C4.863 61.566.01 79.271.01 96.78c0 5.135.333 10.131.999 14.989.666 4.853 1.856 10.326 3.571 16.418 1.712 6.09 3.093 10.614 4.137 13.56 1.045 2.948 2.996 8.229 5.852 15.845 2.852 7.614 4.567 12.275 5.138 13.988 6.661 18.654 14.56 35.307 23.695 49.964 15.03 24.362 35.541 49.539 61.521 75.521 25.981 25.98 51.153 46.49 75.517 61.526 14.655 9.134 31.314 17.032 49.965 23.698 1.714.568 6.375 2.279 13.986 5.141 7.614 2.854 12.897 4.805 15.845 5.852 2.949 1.048 7.474 2.43 13.559 4.145 6.098 1.715 11.566 2.905 16.419 3.576 4.856.657 9.853.996 14.989.996 17.508 0 35.214-4.856 53.105-14.562 19.219-10.656 30.826-20.745 34.823-30.269 2.102-4.754 4.093-11.273 5.996-19.555 1.909-8.278 2.857-14.985 2.857-20.126.006-2.673-.281-4.668-.855-6.012z"/></svg><svg viewBox="0 0 512 512" fill="#d51717" id="play" xmlns="http://www.w3.org/2000/svg"><path d="M256 0C114.833 0 0 114.844 0 256s114.833 256 256 256 256-114.844 256-256S397.167 0 256 0zm101.771 264.969l-149.333 96a10.62 10.62 0 01-5.771 1.698c-1.75 0-3.521-.438-5.104-1.302A10.653 10.653 0 01192 352V160c0-3.906 2.125-7.49 5.563-9.365 3.375-1.854 7.604-1.74 10.875.396l149.333 96c3.042 1.958 4.896 5.344 4.896 8.969s-1.854 7.01-4.896 8.969z"/></svg><svg viewBox="0 0 512 512" fill="#fff" id="previous" xmlns="http://www.w3.org/2000/svg"><path d="M256 0C114.618 0 0 114.618 0 256s114.618 256 256 256 256-114.618 256-256S397.382 0 256 0zm0 469.333c-117.818 0-213.333-95.515-213.333-213.333S138.182 42.667 256 42.667 469.333 138.182 469.333 256 373.818 469.333 256 469.333z"/><path d="M313.752 134.248c-8.331-8.331-21.839-8.331-30.17 0L176.915 240.915c-8.331 8.331-8.331 21.839 0 30.17l106.667 106.667c8.331 8.331 21.839 8.331 30.17 0 8.331-8.331 8.331-21.839 0-30.17L222.17 256l91.582-91.582c8.331-8.331 8.331-21.838 0-30.17z"/></svg><svg viewBox="0 0 512 512" id="red-pepper" xmlns="http://www.w3.org/2000/svg"><path d="M512 256c0 6.99-.282 13.908-.825 20.752a254.723 254.723 0 01-15.621 69.726v.01a254.391 254.391 0 01-17.795 37.48c-23.165 40.082-56.905 73.3-97.395 95.838a253.605 253.605 0 01-38.494 17.439c-22.528 8.014-46.519 12.967-71.461 14.346-4.775.273-9.571.409-14.409.409C114.615 512 0 397.385 0 256S114.615 0 256 0s256 114.615 256 256z" fill="#fcd82b"/><path d="M324.326 94.135L181.781 236.67l-87.573 87.573c-32.089-32.089-32.089-84.114 0-116.203l2.57-2.57c15.924-15.924 17.993-41.054 4.859-59.35-8.088-11.254-15.527-22.361-17.826-27.303C68.775 86.528 64.826 51.963 72.422 17.22 75.097 4.984 87.531-2.602 99.767.826c11.139 3.135 17.816 14.733 15.37 26.039-4.953 22.894-3.124 45.234 5.423 66.727.199.512.46 1.076.763 1.703 13.699 28.254 51.493 34.137 73.697 11.933l13.103-13.093c16.05-16.05 37.073-24.064 58.096-24.064 21.034 0 42.068 8.014 58.107 24.064z" fill="#3bb23b"/><path d="M181.781 236.67l-87.573 87.573c-32.089-32.089-32.089-84.114 0-116.203l2.57-2.57c15.924-15.924 17.993-41.054 4.859-59.35-8.088-11.254-15.527-22.361-17.826-27.303C68.775 86.528 64.826 51.963 72.422 17.22 75.097 4.984 87.531-2.602 99.767.826c0 0-46.404 67.574 63.31 205.5 8.621 10.835 14.744 20.939 18.704 30.344z" fill="#288e28"/><path d="M477.759 383.969c-23.165 40.082-56.905 73.3-97.395 95.838a253.605 253.605 0 01-38.494 17.439c-22.528 8.014-46.519 12.967-71.461 14.346L103.654 439.15c-46.561-20.229-66.309-75.609-43.06-120.738l32.068-62.245 13.49-26.175c14.994-29.1 43.844-46.122 74.115-47.512 16.656-.763 33.75 3.197 49.194 12.497L435.87 319.184c24.031 14.463 38.765 38.746 41.889 64.785z" fill="#d32622"/><path d="M511.175 276.752a254.723 254.723 0 01-15.621 69.726v.01a254.391 254.391 0 01-17.795 37.48c-.272.46-.533.919-.815 1.379-23.124 39.466-56.56 72.182-96.58 94.459-25.516-3.479-49.183-18.108-63.394-41.723L192.763 231.685c-9.3-15.444-13.26-32.538-12.497-49.204 1.39-30.271 18.411-59.12 47.512-74.115l26.154-13.479 62.265-32.078c45.129-23.249 100.509-3.5 120.738 43.06l15.538 35.756s.01.01.01.042l.052.115 58.64 134.97z" fill="#fc4b42"/><g fill="#f43d2f"><path d="M511.175 276.752a254.723 254.723 0 01-15.621 69.726v.01a254.391 254.391 0 01-17.795 37.48c-.272.46-.533.919-.815 1.379-32.799-41.817-67.041-97.844-40.688-124.207 43.75-43.739 17.68-115.607 16.279-119.359l58.64 134.971z"/><path d="M495.553 346.478v.01a254.391 254.391 0 01-17.795 37.48 256.978 256.978 0 01-80.206 85.358 251.798 251.798 0 01-17.189 10.48 253.605 253.605 0 01-38.494 17.439c-13.72-3.145-26.854-9.644-38.139-19.519l-30.939-27.105-150.245-131.634c-19.017-16.656-29.038-39.57-29.884-62.819-.867-23.468 7.628-47.271 25.652-65.296l70.332-70.343c18.035-18.024 41.827-26.509 65.285-25.642 23.259.846 46.184 10.867 62.84 29.874l131.636 150.246 27.105 30.939c10.449 11.933 17.116 25.945 20.041 40.532z"/></g><path d="M397.552 469.327a251.798 251.798 0 01-17.189 10.48 253.605 253.605 0 01-38.494 17.439c-13.72-3.145-26.854-9.644-38.139-19.519l-181.184-158.74c-19.017-16.656-29.038-39.57-29.884-62.819-.867-23.468 7.628-47.271 25.652-65.296l70.332-70.343c-49.737 49.737-18.819 193.066 208.906 348.798z" fill="#e53229"/><circle cx="274.349" cy="156.171" r="29.779" fill="#fc4b42"/><path d="M495.553 346.478v.01a254.391 254.391 0 01-17.795 37.48 256.978 256.978 0 01-80.206 85.358 251.798 251.798 0 01-17.189 10.48 253.605 253.605 0 01-38.494 17.439c-13.72-3.145-26.854-9.644-38.139-19.519l-30.939-27.105c167.706-61.377 175.616-175.616 175.616-175.616l27.105 30.939c10.449 11.935 17.116 25.947 20.041 40.534z" fill="#e53229"/></svg><svg viewBox="0 0 497.079 497.079" id="sale" xmlns="http://www.w3.org/2000/svg"><path d="M402.897 217.17c-.542-1.114-1.487-3.735-2.666-7.01-3.932-10.925-11.459-9.723-11.459-9.723s1.527 2.558-1.021 9.191c-.768 4.534-26.69 38.226-31.379 29.545-.397-.734-.5-1.59-.404-2.419 1.466-12.674 1.956-25.647 1.489-38.733-2.09-60.49-24.28-123.63-62.48-173.24-.11-.14-.21-.27-.32-.4a287.11 287.11 0 00-1.808-2.316v-.005a286.366 286.366 0 00-4.975-6.114c-4.369-5.22-6.588-.799-11.347-5.676-1.55-1.59-4.27-.64-4.52 1.57-5.52 49.67-17.142 68.75-29.702 84.17-15.913 17.038-40.095 37.05-50.046 63.83-4.913 10.964-13.284 21.536-15.84 32.32-.413 2.219-3.379 2.432-4.552 1.111-9.82-9.782-17.143-28.996-20.07-46.071-.99-5.774-4.614-1.254-4.525-6.091-.02-1.56-1.9-2.33-3.01-1.22-51.05 50.75-66.972 121.309-57.702 195.359 1.51 12.3 1.986 24.642 5.106 36.252 10.331 40.192 38.26 71.355 70.468 93.957 29.026 20.369 60.844 34.407 98.324 30.993l-.037-.004c82.52-6.129 144.653-66.926 156.276-148.926 8.235-51.697-2.98-99.442-13.8-130.35z" fill="#f9af38"/><g fill="#f48931"><path d="M256.639 496.751c-77.65 5.1-150.52-49.89-169.84-125.07-3.12-11.61-5.91-24.61-7.42-36.91-9.27-74.05 16.97-154.18 68.02-204.93 1.11-1.11 2.99-.34 3.01 1.22-.09 4.84.4 10.36 1.39 16.14-40.69 50.57-60.69 121.49-52.42 187.57 1.51 12.3 4.3 25.3 7.42 36.91 17.65 68.68 80 120.52 149.84 125.07zM358.229 240.741c.09.01.18.02.27.02h-.28zM192.259 148.791c-1.54 2.98-2.96 5.96-4.28 8.91l-.01-.02c1.32-2.95 2.74-5.92 4.29-8.89z"/></g><path d="M345.879 307.076c-2.205-5.599-2.809-7.261-4.17-10.043-.485-.991-1.948-.799-2.164.281-.73 3.641-.901 6.165-2.772 11.038-2.93 7.81-9.086 14.704-15.053 20.35-.793.764-1.932.552-2.522-.166-.27-.478-.424-.94-.38-1.308 5.624-46.839-9.288-99.788-39.865-139.499-.071-.092-.139-.172-.208-.257l-.396-.511c-4.067-5.225-7.354-7.986-11.958-12.7-1.019-1.044-2.796-.424-2.959 1.028-3.615 32.53-9.413 49.707-17.638 59.804-8.009 9.84-16.229 12.581-25.412 26.622-8.392 12.841-12.899 24.348-15.443 34.894-.33 1.366-5.701 2.538-6.618 1.473-2.617-3.026-5.723-7.381-8.368-13.347-1.765-3.983-2.994-7.933-3.846-11.642-1.441-6.278-3.494-7.37-3.532-11.259-.012-1.024-1.247-1.525-1.973-.799-35.603 35.393-46.13 86.545-36.426 137.532 13.516 71.014 67.851 98.616 107.234 98 1.722-.027 3.918.321 6.22.142 24.314-1.885 78.01-14.342 97.707-82.218 11.275-38.851 2.82-76.256-5.303-99.644-1.038-2.996-4.155-7.771-4.155-7.771z" fill="#df646e"/><path d="M208.409 275.831l-3.47 9c.99-2.92 2.14-5.94 3.47-9zM258.327 496.651c-2.53.28-4.958.22-6.758.35-39.39.41-98.83-25.85-112.34-96.86-9.71-50.99 7.47-108.21 43.07-143.6.73-.73 1.96-.23 1.97.8.04 3.89.4 9.47 1.84 15.75-25.8 35.18-37.19 83.4-28.88 127.05 12.26 64.4 62.508 92.24 101.098 96.51z" fill="#dc4955"/><path d="M227.88 445.541a7.5 7.5 0 01-6.88-10.478l42.676-98.69a7.501 7.501 0 019.86-3.907 7.498 7.498 0 013.907 9.86l-42.676 98.69a7.501 7.501 0 01-6.887 4.525zM210.976 384.315l-.262-.001c-14.272-.154-25.744-13.227-25.572-29.141.171-15.82 11.785-28.585 25.941-28.585l.254.001c7.129.077 13.73 3.296 18.588 9.066 4.584 5.445 7.065 12.575 6.984 20.076s-2.714 14.575-7.416 19.92c-4.92 5.594-11.487 8.664-18.517 8.664zm.106-42.727c-5.959 0-10.859 6.142-10.941 13.747-.082 7.644 4.733 13.916 10.735 13.98 2.7.068 5.304-1.239 7.354-3.57 2.331-2.65 3.637-6.264 3.68-10.176.042-3.912-1.187-7.553-3.459-10.252-2-2.375-4.583-3.699-7.275-3.728l-.094-.001zM285.991 452.915l-.254-.001c-14.271-.154-25.743-13.227-25.572-29.141.172-15.821 11.785-28.585 25.941-28.585l.255.001c14.271.154 25.743 13.227 25.572 29.141v.001c-.172 15.819-11.786 28.584-25.942 28.584zm.114-42.727c-5.96 0-10.858 6.142-10.94 13.747-.083 7.644 4.732 13.915 10.734 13.98 5.966.092 10.952-6.102 11.034-13.747v.001c.083-7.645-4.732-13.916-10.734-13.981h-.094zm18.328 14.062h.01z" fill="#f5fcff"/><path d="M194.305 43.289c-3.447 18.27-15.3 27.635-20.466 31.787a1.994 1.994 0 01-2.982-.568c-3.305-5.75-11.146-18.45-7.701-36.709.78-4.136.39-8.786 2.083-12.357 5.788-12.206 15.501-20.845 19.498-24.058a1.994 1.994 0 012.982.568c2.603 4.528 8.665 16.428 9.44 30.199.209 3.714-2.123 7.259-2.854 11.138z" fill="#df646e"/><path d="M196.459 43.591c-3.44 18.27-18.16 31.49-23.33 35.64-.96.77-2.37.5-2.98-.56-3.3-5.75-12.19-23.39-8.74-41.65.85-4.51 2.39-8.71 4.31-12.54.77 13.76 6.83 25.66 9.43 30.19a1.994 1.994 0 002.98.56c3.89-3.12 13.2-11.39 19.02-23.08.22 3.72.04 7.57-.69 11.44z" fill="#dc4955"/><path d="M416.007 101.203c3.596 16.548-4.785 29.466-8 34.723a1.992 1.992 0 01-2.814.61c-5.107-3.459-17.419-11.293-21.015-27.844-.599-2.756-2.458-5.701-2.447-8.405.056-13.529 6.698-25.748 9.377-30.13a1.992 1.992 0 012.814-.61c3.892 2.637 13.528 9.876 19.482 20.5 1.858 3.315 1.748 7.221 2.603 11.156z" fill="#df646e"/><path d="M409.079 139.291a2 2 0 01-2.81.61c-5.11-3.46-20.1-14.85-23.7-31.4-.74-3.4-.95-6.81-.78-10.11 5.95 10.63 15.58 17.87 19.48 20.51a2 2 0 002.81-.61c2.55-4.17 8.71-15.47 9.32-28.24 1.86 3.31 3.36 6.95 4.22 10.89 3.59 16.55-5.33 33.09-8.54 38.35zM278.349 186.961c-4.38 23.81-12.05 37.69-19.01 46.24-8.01 9.84-15.42 13.03-24.61 27.07-4.4 6.73-8.39 16.9-11.27 25.08-2.81 7.96-10.34 13.28-18.79 13.31l-5.05.02c3.42-1.544 3.042-9.72 5.321-13.849 2.979-8.254 6.862-17.269 11.789-24.561 9.19-14.04 16.6-17.23 24.61-27.07 8.22-10.1 17.42-27.62 21.04-60.15.16-1.45 1.94-2.07 2.96-1.03 4.02 4.13 7.86 8.47 11.47 12.99.52.65 1.03 1.3 1.54 1.95zM350.019 314.851c-.115.215-.241.438-.375.666-5.031 8.568-14.386 13.664-24.322 13.664h-4.633l.01-.01c.36-.03.72-.17 1.02-.47 5.97-5.64 10.83-13.67 13.76-21.48 1.54-4.02 2.6-7.83 3.34-11.09v-.02c.15-.68.29-1.35.42-1.97.22-1.08 1.68-1.28 2.16-.29 1.37 2.79 3.37 7.13 5.58 12.72v.01c.99 2.51 2.02 5.28 3.04 8.27z" fill="#dc4955"/><path d="M358.499 240.761h-.28l.01-.02c.09.01.18.02.27.02z" fill="#f48931"/><g fill="#f48931"><path d="M269.669 2.361c-5.52 49.67-19.57 76.42-32.13 91.84-15.91 17.04-39.61 36.72-49.56 63.5l-.01-.02c-2.305 5.155-4.413 10.701-6.286 16.253l-.014-.023c-.287.865-.554 1.73-.85 2.59l.006.013c-1.737 5.384-3.235 10.721-4.406 15.647-.22 1.22-1.23 1.84-2.28 1.92v.01h7.027c8.823 0 16.618-5.775 19.148-14.227 2.307-7.704 5.214-16.734 7.655-22.183l.01.02c9.95-26.78 33.65-46.46 49.56-63.5 11.36-13.95 23.95-37.17 30.33-78.25-4.36-5.22-8.92-10.28-13.68-15.16-1.55-1.59-4.27-.64-4.52 1.57zM387.029 187.261c-1.28 6.43-3.19 13.34-5.74 19.97-.119.703-.689 2.169-1.577 4.095-.097.209-.195.421-.299.64l-.116.243c-.389.815-.826 1.698-1.303 2.63l-.264.513c-5.156 9.976-14.556 25.098-19.371 25.159l-.14.25.999-.013a39.97 39.97 0 0031.438-15.931c4.124-5.486 8.048-11.146 9.573-14.656-3.93-10.92-10.45-29.12-13.2-22.9z"/></g></svg><svg viewBox="0 0 512.002 512.002" id="swipe" xmlns="http://www.w3.org/2000/svg"><path d="M456.002 328.125V243.75c0-24.115-12.736-43.646-34.069-52.243-11.487-4.63-23.375-5.068-32.689-1.665-4.246-5.4-9.847-9.923-16.578-13.217-12.826-6.275-27.315-7.135-38.889-2.802-6.028-7.121-14.467-12.424-24.63-15.052-8.507-2.2-16.862-2.188-24.043-.278l-1.668-76.708c-.484-22.308-17.509-39.782-38.758-39.782-21.373 0-38.76 17.944-38.76 40v191.486c-4.031-4.004-7.021-8.23-10.101-12.583-7.645-10.807-16.311-23.057-40.015-28.169-20.078-4.33-37.368 5.622-44.936 16.7-5.986 8.761-6.482 18.645-1.328 26.437 1.521 2.299 3.3 4.587 5.185 7.009 6.171 7.934 14.624 18.801 22.902 41.523 11.53 31.65 31.444 45.931 47.446 57.407 15.434 11.068 27.093 19.44 29.821 40.223-5.213.342-9.339 4.667-9.339 9.967v70c0 5.523 4.477 10 10 10H436.78c5.523 0 10-4.477 10-10v-70c0-5.321-4.16-9.659-9.403-9.97 1.33-12.744 4.917-25.72 8.676-39.299 4.891-17.668 9.949-35.937 9.949-54.609zm-29.223 163.877H225.552v-50h55.61c5.523 0 10-4.477 10-10s-4.477-10-10-10h-46.15c-3.123-31.205-20.97-44.024-38.287-56.443-15.189-10.893-30.895-22.155-40.31-48-9.354-25.676-19.315-38.483-25.907-46.958-1.713-2.203-3.193-4.105-4.291-5.764-.791-1.195.959-3.824 1.161-4.12 3.94-5.768 13.763-10.683 24.206-8.431 16.091 3.47 20.79 10.113 27.903 20.169 5.676 8.022 12.587 17.793 26.428 26.169v4.126c0 5.523 4.477 10 10 10s10-4.477 10-10V82.003c0-11.028 8.416-20 18.761-20 10.104 0 18.521 9.069 18.763 20.217l2.876 132.249c.12 5.521 4.715 9.859 10.215 9.78 5.522-.12 9.9-4.693 9.78-10.215l-.741-34.078c3.242-2.623 10.555-3.893 18.569-1.821 4.663 1.206 19.875 6.512 19.875 24.178 0 5.523 4.477 10 10 10s10-4.477 10-10c0-3.588-.4-7.062-1.17-10.384 6.195-1.56 14.203-.68 21.029 2.661 5.455 2.669 14.606 9.098 14.606 22.16 0 5.523 4.477 10 10 10s10-4.477 10-10c0-2.937-.281-5.808-.827-8.592 4.259-1.01 10.455-.659 16.803 1.899 6.478 2.61 21.545 11.12 21.545 33.692v84.375c0 15.954-4.481 32.137-9.225 49.271-4.015 14.498-8.133 29.406-9.483 44.606h-46.132c-5.523 0-10 4.477-10 10s4.477 10 10 10h55.617v50.001zM109.002 74.79L90.143 55.931h86.366c5.523 0 10-4.477 10-10s-4.477-10-10-10H90.142l18.86-18.859c3.905-3.905 3.905-10.237 0-14.143s-10.237-3.905-14.143 0L58.929 38.86a10.001 10.001 0 000 14.142l35.931 35.93c1.953 1.953 4.512 2.929 7.071 2.929s5.119-.976 7.071-2.929c3.905-3.905 3.905-10.237 0-14.142z"/><path d="M326.166 422.002h-.007c-5.523 0-9.996 4.477-9.996 10s4.48 10 10.003 10 10-4.477 10-10-4.477-10-10-10z"/></svg><svg viewBox="0 0 32 32" id="telegram" xmlns="http://www.w3.org/2000/svg"><path d="M26 32H6a6 6 0 01-6-6V6a6 6 0 016-6h20a6 6 0 016 6v20a6 6 0 01-6 6z" fill="#ffe6e2"/><path d="M16 24c4.419 0 8-3.581 8-8s-3.581-8-8-8-8 3.581-8 8 3.581 8 8 8zm-4.34-8.173l7.713-2.974c.358-.129.671.087.555.629l.001-.001-1.313 6.187c-.097.438-.358.545-.723.339l-2-1.474-.965.929c-.107.107-.197.197-.403.197l.142-2.036 3.707-3.349c.161-.142-.036-.222-.248-.081l-4.581 2.884-1.974-.616c-.43-.135-.439-.428.089-.634z" fill="#fc573b"/></svg><svg viewBox="0 0 512 512" id="vegetables" xmlns="http://www.w3.org/2000/svg"><path d="M186.661 209.483a34.4 34.4 0 00-20.466-1.591 20.35 20.35 0 01-21.389-8.517 34.579 34.579 0 00-57.665.251l-.038.059a8.8 8.8 0 01-11.714 3.056 34.572 34.572 0 10-25.667 63.553 9.025 9.025 0 016.754 10.347l-.015.08a34.586 34.586 0 0041.718 39.823 20.349 20.349 0 0121.389 8.516A34.565 34.565 0 00159.4 338.6a21.076 21.076 0 0122.955 6.256 34.408 34.408 0 0013.545 9.714C221.6 364.8 296 327.444 296 327.444s-28.383-78.284-54.079-88.516a34.414 34.414 0 00-16.52-2.256 21.075 21.075 0 01-20.973-11.235 34.418 34.418 0 00-17.767-15.954z" fill="#58853f"/><path d="M188.861 135.123a34.4 34.4 0 00-19.566-6.212 20.349 20.349 0 01-18.886-13.166A34.58 34.58 0 0094.2 102.851l-.05.048a8.8 8.8 0 01-12.1.307 34.572 34.572 0 10-39.471 56.034 9.026 9.026 0 014.22 11.614l-.033.074a34.585 34.585 0 0031.547 48.28A20.35 20.35 0 0197.2 232.374a34.566 34.566 0 0035.7 22.256 21.073 21.073 0 0120.926 11.321A34.422 34.422 0 00164.8 278.5c22.689 15.817 103.646-3.607 103.646-3.607s-9.8-82.692-32.49-98.509a34.4 34.4 0 00-15.571-5.96 21.078 21.078 0 01-17.862-15.719 34.423 34.423 0 00-13.662-19.582z" fill="#649441"/><path d="M272.998 268.313l-48.252-33.363-9.789-54.815-15.75 2.812 6.997 39.183-32.45-22.437-9.848-55.147-15.75 2.812 7.057 39.515-26.785-18.52-8.181-45.814-15.75 2.813 5.389 30.181L60.55 121.42l-9.1 13.16 48.035 33.213-28.05 5.009 2.812 15.75 43.919-7.843 26.994 18.665-37.972 6.78 2.812 15.75 53.841-9.613 32.703 22.612-38.306 6.84 2.813 15.75 54.173-9.674 48.674 33.655z" fill="#72a64e"/><path d="M328 48l-24.93 62.81-31.226-6.997 32.737-61.061z" fill="#6a9c46"/><path d="M281.161 37.505l-9.317 66.308 31.226 6.997 1.511-68.058z" fill="#79ad54"/><path d="M318.07 135.52a36.881 36.881 0 01-1.66 10.94l-40.42 130.53a25.995 25.995 0 01-50.57-11.33l5.6-39.58 2.25-15.89 3.38-23.87 2.25-15.88 3.37-23.86 2.25-15.88.05-.34a36.933 36.933 0 0173.5 5.16z" fill="#f07800"/><path d="M280.42 138.53l-3.41 15.63-34.74-7.58 2.25-15.88zM238.9 170.44l32.76 7.12-3.39 15.63-31.62-6.87zM262.91 216.59l-3.38 15.64-28.51-6.15 2.25-15.89z" fill="#e66b00"/><path d="M88.156 264a223.468 223.468 0 01-.156-8c0-106.039 75.216-192 168-192s168 85.961 168 192c0 2.681-.061 5.346-.156 8h40.019c.081-2.657.137-5.321.137-8 0-128.13-93.125-232-208-232S48 127.87 48 256c0 2.679.056 5.343.136 8z" fill="#8c5237"/><path d="M252.47 153.52a34.408 34.408 0 00-9.814-18.031 20.35 20.35 0 01-4.508-22.576 34.578 34.578 0 00-31.619-48.224h-.069a8.8 8.8 0 01-8.943-8.159 34.572 34.572 0 10-67.28 13.09 9.023 9.023 0 01-5 11.3l-.075.032a34.587 34.587 0 00-10.675 56.677A20.347 20.347 0 01119 160.205a34.568 34.568 0 0010.341 40.775 21.077 21.077 0 017.257 22.659 34.4 34.4 0 00-.769 16.657c5.415 27.123 77.27 69.172 77.27 69.172s50.194-66.443 44.778-93.566a34.4 34.4 0 00-7.106-15.083 21.079 21.079 0 01-2-23.71 34.42 34.42 0 003.699-23.589z" fill="#79ad54"/><path d="M424 82.622l-49.399 63.433-27.078-17.052 56.168-59.17z" fill="#6a9c46"/><path d="M383.382 57.044l-35.859 71.959 27.078 17.052 29.09-76.222z" fill="#79ad54"/><path d="M375.23 184.11l-81.8 109.45a26 26 0 01-43.86-27.61l18.83-35.98 7.45-14.24 11.14-21.29 7.45-14.23 11.15-21.31 7.34-14.02c.04-.07.07-.14.11-.21a36.952 36.952 0 0136.35-19.42c.5.06 1 .12 1.5.2a36.677 36.677 0 0114.43 5.31h.01a36.736 36.736 0 0111.02 10.71c.29.42.56.85.82 1.28a36.927 36.927 0 01-1.94 41.36z" fill="#f98500"/><path d="M344.08 164.65l-8.66 13.45-29.83-19.2 7.34-14.02c.04-.07.07-.14.11-.21zM322.77 198.51l-8.68 13.44-27.1-17.51 7.45-14.23zM301.47 232.36l-8.71 13.42-24.36-15.81 7.45-14.24z" fill="#eb7206"/><path d="M376 184h40a16 16 0 0116 16v8h-72v-8a16 16 0 0116-16z" fill="#79ad54"/><path d="M433.765 155.556V136C400.5 136 376 162.266 376 194.667V232h50.639v-27.556l-5.933-11.455C408 176 413 155.556 433.765 155.556z" fill="#79ad54"/><path d="M352.392 312a20.062 20.062 0 01-19.98-16.341L320.386 226c-2.831-16.4 10.268-31.329 27.49-31.329 15.391 0 27.868 12.046 27.868 26.905v67.883c0 12.447-10.455 22.541-23.352 22.541zM439.608 312c-12.9 0-23.352-10.094-23.352-22.545v-67.883c0-14.859 12.477-26.9 27.868-26.9 17.222 0 30.321 14.929 27.49 31.329l-12.026 69.663A20.062 20.062 0 01439.608 312z" fill="#fcac1f"/><path d="M393 194.667h6a27.383 27.383 0 0127.383 27.383v60.1A29.854 29.854 0 01396.53 312h-1.06a29.854 29.854 0 01-29.854-29.854v-60.1A27.383 27.383 0 01393 194.667z" fill="#ffb531"/><path d="M240.127 204.064l-13.311-8.878-21.841 32.747-7.755-38.836 30.721-46.059-13.31-8.879-21.841 32.746-6.4-32.053 25.295-37.923-13.311-8.879-16.415 24.61-9.757-48.865-15.689 3.133 9.758 48.87-24.607-16.412-8.879 13.31 37.915 25.29 6.401 32.058-32.741-21.838-8.879 13.311 46.05 30.714 7.755 38.84-32.741-21.839-8.879 13.311 46.05 30.715 11.536 57.776 15.689-3.133-11.535-57.776z" fill="#89ba66"/><path d="M464 304l-2.09 16-1.04 8-2.09 16-3.13 24-2.08 16-3.13 24-2.09 16-1.08 8.28A63.995 63.995 0 01383.81 488H128.19a63.939 63.939 0 01-63.46-55.72L63.65 424l-2.09-16-3.13-24-2.08-16-3.13-24-2.09-16-1.04-8L48 304z" fill="#92563a"/><path d="M464 304l-2.09 16-1.04 8-2.09 16-3.13 24-2.08 16-3.13 24-2.09 16-1.08 8.28A63.995 63.995 0 01383.81 488H128.19a63.792 63.792 0 01-40.33-14.32C196.22 457.03 316.04 408.07 403.24 304z" fill="#8c5237"/><path d="M488 284a20.007 20.007 0 01-20 20H44a20 20 0 010-40h424a19.994 19.994 0 0120 20z" fill="#a8684a"/><g fill="#78462f"><path d="M224 328h64v16h-64zM128 328h64v16h-64zM96 328v16H53.22l-2.09-16zM320 328h64v16h-64zM460.87 328l-2.09 16H416v-16zM224 368h64v16h-64zM128 368h64v16h-64zM96 368v16H58.43l-2.08-16zM320 368h64v16h-64zM455.65 368l-2.08 16H416v-16zM224 408h64v16h-64zM128 408h64v16h-64zM96 408v16H63.65l-2.09-16zM320 408h64v16h-64zM450.44 408H416v16h32.35zM224 448h64v16h-64zM128 448h64v16h-64zM96 448v16H78.23a64.118 64.118 0 01-9.38-16zM320 448h64v16h-64zM443.15 448a64.118 64.118 0 01-9.38 16H416v-16z"/></g><path d="M464 304l-2.09 16H50.09L48 304z" fill="#8c5237"/></svg><svg viewBox="0 0 512 512" id="worker" xmlns="http://www.w3.org/2000/svg"><path d="M264 192h32v72h-32z" fill="#deb89a"/><path d="M376 124.892V88a64 64 0 00-64-64h-8a32 32 0 00-32 32v48a96 96 0 0096 96h8c48 0 48-40 48-40l-21.261-3.543A32 32 0 01376 124.892z" fill="#794832"/><path d="M440 376H112l61.2-97.92a64.031 64.031 0 0150.89-29.99c1.12-.06 2.25-.09 3.38-.09H264l16 16 16-16h34.57c1.75 0 3.48.07 5.2.23a63.933 63.933 0 0150.58 32.39z" fill="#e74444"/><path d="M440 376H112l61.2-97.92a64.022 64.022 0 0150.41-29.96l.48-.03c1.12-.06 2.25-.09 3.38-.09H264l16 16 16-16h34.57c1.75 0 3.48.07 5.2.23l.67.06a63.945 63.945 0 0149.91 32.33z" fill="#e74444"/><g fill="#fc8d36"><path d="M352 328H208l-24 56v104h192V384z"/><path d="M354.3 335.66a7.989 7.989 0 01-9.96-5.36l-24-80a8.011 8.011 0 01-.34-2.3h10.57c1.75 0 3.48.07 5.2.23l.67.06 23.22 77.41a8 8 0 01-5.36 9.96zM240 248a8.011 8.011 0 01-.34 2.3l-24 80a8 8 0 01-15.32-4.6l23.27-77.58.48-.03c1.12-.06 2.25-.09 3.38-.09z"/></g><path d="M377.137 272.235l-96.166 96.167L264 408l39.598-16.971 96.167-96.166z" fill="#c2c5c6"/><path d="M104 312h112v144H104z" fill="#6a7073"/><path d="M104 376H72v-32a16 16 0 0116-16 16 16 0 0116 16v32z" fill="#deb89a"/><path d="M136 312h48v16a16 16 0 01-16 16h-16a16 16 0 01-16-16v-16z" fill="#c2c5c6"/><path d="M369.373 347.882L440 376l-6.038 42.263A16 16 0 01418.123 432H376l-29.255-61.49z" fill="#ce3536"/><path d="M377.131 272.173l22.624 22.624-96.152 96.152-22.624-22.624z" fill="#6a7073"/><path d="M405.408 266.509a15.998 15.998 0 010 22.624l-11.312 11.312-22.624-22.624 11.312-11.312a15.998 15.998 0 0122.624 0z" fill="#c2c5c6"/><rect fill="#f5cbaa" height="48" rx="16" transform="rotate(45 336.087 335.964)" width="64" x="304" y="312"/><path d="M224 104h112v64a48 48 0 01-48 48h-16a48 48 0 01-48-48v-64z" fill="#f5cbaa"/><path d="M280 264l-16 24-39.91-39.91c1.12-.06 2.25-.09 3.38-.09H264zM335.77 248.23L296 288l-16-24 16-16h34.57c1.75 0 3.48.07 5.2.23z" fill="#ce3536"/><path d="M344 112v48l-14.89-1.86h-.01C291.03 148.41 272 104 272 104s-16 40-56 40v-32a48 48 0 0148-48h32a48 48 0 0148 48z" fill="#93573d"/><path d="M112 408H84a12 12 0 01-12-12v-36h40a24 24 0 0124 24 24 24 0 01-24 24z" fill="#f5cbaa"/></svg></svg>